<svg width="76" height="80" viewBox="0 0 76 80" fill="none" xmlns="http://www.w3.org/2000/svg">
<g filter="url(#filter0_d_204_3680)">
<g clip-path="url(#clip0_204_3680)">
<path d="M38.047 34.0864H42.2999V40.2224H38.047V34.0864ZM47.3586 39.5356V24.7131C47.3586 23.5304 46.887 22.3962 46.0475 21.5599C45.2079 20.7237 44.0692 20.2538 42.8819 20.2538H29.5232C28.336 20.2538 27.1973 20.7237 26.3577 21.5599C25.5182 22.3962 25.0465 23.5304 25.0465 24.7131V40.695H27.4371V24.7131C27.4371 24.1541 27.6594 23.6178 28.0554 23.2216C28.4515 22.8255 28.9889 22.6018 29.5501 22.5994H42.855C43.4179 22.5994 43.9575 22.8221 44.3555 23.2185C44.7534 23.6149 44.977 24.1525 44.977 24.7131V39.5356H47.3586ZM42.2999 25.0609H38.047V31.1433H42.2999V25.0609ZM30.6245 40.2224H34.8774V34.0864H30.6245V40.2224ZM34.8774 25.0609H30.6245V31.1433H34.8774V25.0609ZM27.0879 49.3995C27.0879 49.9286 26.9304 50.4459 26.6352 50.8859C26.3401 51.3259 25.9206 51.6689 25.4298 51.8714C24.939 52.0739 24.3989 52.1269 23.8778 52.0236C23.3568 51.9204 22.8782 51.6656 22.5025 51.2914C22.1269 50.9172 21.8711 50.4404 21.7674 49.9214C21.6638 49.4025 21.717 48.8645 21.9203 48.3756C22.1236 47.8866 22.4679 47.4688 22.9096 47.1749C23.3513 46.8809 23.8706 46.7239 24.4019 46.7239C24.7576 46.7239 25.1099 46.7943 25.4381 46.931C25.7664 47.0676 26.0641 47.2679 26.314 47.5201C26.5639 47.7723 26.761 48.0715 26.8938 48.4003C27.0267 48.729 27.0927 49.0808 27.0879 49.4352V49.3995ZM24.957 49.2389C24.8121 49.1616 24.6626 49.0931 24.5093 49.0338C24.4215 49.0036 24.3397 48.9583 24.2676 48.9C24.2326 48.88 24.2043 48.8501 24.1863 48.8142C24.1682 48.7783 24.1611 48.7379 24.1658 48.698C24.1706 48.6581 24.187 48.6205 24.2131 48.5898C24.2391 48.5591 24.2736 48.5368 24.3123 48.5254H24.4645C24.6595 48.5148 24.8538 48.5548 25.0286 48.6414C25.1092 48.686 25.145 48.6414 25.1719 48.579C25.1987 48.5165 25.2345 48.3827 25.2614 48.2846C25.267 48.2712 25.2695 48.2568 25.2688 48.2423C25.2681 48.2278 25.2642 48.2137 25.2573 48.2009C25.2505 48.1881 25.2409 48.177 25.2292 48.1683C25.2175 48.1597 25.2041 48.1537 25.1898 48.1508C25.0794 48.0979 24.9617 48.0618 24.8406 48.0438C24.6794 48.0438 24.6794 48.0438 24.6794 47.8565C24.6794 47.6692 24.6794 47.6336 24.4466 47.6336H24.3481C24.2407 47.6336 24.2228 47.6336 24.2138 47.7584V47.9011C24.2138 48.0438 24.2138 48.0438 24.0795 48.0884C23.9239 48.1319 23.7862 48.2236 23.6864 48.3503C23.5866 48.477 23.5298 48.6321 23.5244 48.793C23.5143 48.9346 23.5474 49.0759 23.6193 49.1984C23.6912 49.321 23.7986 49.419 23.9273 49.4798C24.0932 49.5661 24.2635 49.6435 24.4377 49.7116C24.506 49.7365 24.5695 49.7726 24.6257 49.8186C24.6651 49.8446 24.6962 49.8812 24.7156 49.9241C24.735 49.9671 24.7418 50.0146 24.7352 50.0612C24.7287 50.1078 24.709 50.1516 24.6786 50.1876C24.6481 50.2236 24.6081 50.2502 24.563 50.2645C24.4579 50.2957 24.3459 50.2957 24.2407 50.2645C24.0661 50.2485 23.896 50.2001 23.7393 50.1218C23.6498 50.0683 23.6229 50.1218 23.5871 50.1842L23.5155 50.4429C23.5155 50.5588 23.5155 50.5856 23.605 50.6391C23.7496 50.7063 23.9035 50.7515 24.0616 50.7729C24.178 50.7729 24.187 50.7729 24.187 50.9156V51.0851C24.187 51.1653 24.187 51.201 24.2944 51.201H24.5451C24.5596 51.2024 24.5742 51.2006 24.5878 51.1957C24.6015 51.1908 24.6139 51.1829 24.6242 51.1727C24.6344 51.1625 24.6423 51.1501 24.6472 51.1365C24.6521 51.1229 24.654 51.1084 24.6526 51.094V50.9245C24.6526 50.8532 24.6884 50.8086 24.76 50.7907C24.9316 50.7413 25.0843 50.6419 25.1987 50.5053C25.2786 50.4141 25.3365 50.306 25.368 50.1891C25.3995 50.0722 25.4037 49.9497 25.3804 49.831C25.3571 49.7123 25.3068 49.6004 25.2334 49.504C25.16 49.4075 25.0655 49.3291 24.957 49.2746V49.2389ZM19.8535 49.5422C19.8553 49.6864 19.8998 49.8269 19.9816 49.9459C20.0633 50.065 20.1786 50.1574 20.3129 50.2114C20.4472 50.2654 20.5945 50.2786 20.7363 50.2494C20.8781 50.2201 21.0081 50.1498 21.1099 50.0472C21.2117 49.9445 21.2807 49.8142 21.3083 49.6727C21.336 49.5311 21.3209 49.3845 21.2651 49.2514C21.2093 49.1183 21.1152 49.0046 20.9946 48.9246C20.8741 48.8446 20.7325 48.8019 20.5877 48.8019C20.4874 48.8017 20.3881 48.822 20.296 48.8615C20.2039 48.901 20.1208 48.9589 20.052 49.0316C19.9832 49.1044 19.9301 49.1903 19.896 49.2843C19.8618 49.3782 19.8474 49.4781 19.8535 49.5779V49.5422ZM27.5624 49.5422C27.5642 49.6864 27.6087 49.8269 27.6905 49.9459C27.7722 50.065 27.8875 50.1574 28.0218 50.2114C28.1561 50.2654 28.3035 50.2786 28.4453 50.2494C28.5871 50.2201 28.7171 50.1498 28.8189 50.0472C28.9207 49.9445 28.9897 49.8142 29.0173 49.6727C29.0449 49.5311 29.0299 49.3845 28.9741 49.2514C28.9182 49.1183 28.8241 49.0046 28.7036 48.9246C28.5831 48.8446 28.4415 48.8019 28.2966 48.8019C28.1963 48.8017 28.0971 48.822 28.0049 48.8615C27.9128 48.901 27.8298 48.9589 27.761 49.0316C27.6922 49.1044 27.6391 49.1903 27.6049 49.2843C27.5708 49.3782 27.5563 49.4781 27.5624 49.5779V49.5422ZM33.3375 41.8188H21.7964C21.6377 41.8188 21.4805 41.8499 21.3338 41.9104C21.1872 41.9709 21.0539 42.0596 20.9417 42.1714C20.8295 42.2832 20.7404 42.416 20.6797 42.562C20.6189 42.708 20.5877 42.8646 20.5877 43.0227V44.1465H30.2933C30.5825 44.1465 30.8689 44.2032 31.1362 44.3135C31.4034 44.4238 31.6462 44.5854 31.8508 44.7891C32.0552 44.9928 32.2174 45.2346 32.3281 45.5008C32.4388 45.767 32.4958 46.0523 32.4958 46.3404V50.4697H33.3285C33.6491 50.4697 33.9566 50.3428 34.1832 50.117C34.4098 49.8912 34.5372 49.585 34.5372 49.2657V43.0227C34.5302 42.7104 34.4007 42.4133 34.1765 42.195C33.9523 41.9766 33.6511 41.8544 33.3375 41.8544V41.8188ZM31.502 46.278V52.5209C31.502 52.679 31.4708 52.8356 31.41 52.9817C31.3493 53.1277 31.2602 53.2605 31.148 53.3723C31.0357 53.4841 30.9025 53.5728 30.7558 53.6333C30.6092 53.6938 30.452 53.7249 30.2933 53.7249H18.7522C18.4316 53.7249 18.1242 53.5981 17.8975 53.3723C17.6708 53.1465 17.5435 52.8402 17.5435 52.5209V46.278C17.5423 46.1195 17.5728 45.9624 17.6331 45.8158C17.6934 45.6692 17.7824 45.536 17.8949 45.424C18.0073 45.3119 18.1411 45.2233 18.2882 45.1632C18.4354 45.1031 18.5932 45.0728 18.7522 45.0739H30.2933C30.4578 45.0724 30.6209 45.1046 30.7724 45.1686C30.9239 45.2325 31.0605 45.3268 31.1739 45.4456C31.2873 45.5643 31.3749 45.7051 31.4314 45.859C31.4878 46.013 31.5119 46.1768 31.502 46.3404V46.278ZM30.4723 51.2278V47.589H30.2574C29.9321 47.589 29.6201 47.4602 29.3901 47.2312C29.1601 47.002 29.0309 46.6912 29.0309 46.3672C29.0215 46.2931 29.0215 46.2182 29.0309 46.1442H20.0773C20.0861 46.2421 20.0861 46.3406 20.0773 46.4385C20.0773 46.7626 19.9481 47.0734 19.7181 47.3025C19.488 47.5316 19.176 47.6603 18.8507 47.6603C18.7497 47.6739 18.6473 47.6739 18.5463 47.6603V51.3972C18.6475 51.388 18.7494 51.388 18.8507 51.3972C19.176 51.3972 19.488 51.5259 19.7181 51.7551C19.9481 51.9842 20.0773 52.2949 20.0773 52.619C20.0821 52.6694 20.0821 52.7202 20.0773 52.7706H29.0309C29.0264 52.6964 29.0264 52.6219 29.0309 52.5476C29.0236 52.3835 29.0497 52.2196 29.1076 52.0658C29.1654 51.9119 29.2538 51.7712 29.3675 51.6521C29.4812 51.5331 29.6177 51.4381 29.7691 51.3728C29.9205 51.3076 30.0835 51.2734 30.2485 51.2723H30.4634L30.4723 51.2278ZM42.5685 18.0064C42.5711 17.764 42.4793 17.5301 42.3123 17.3538C42.1453 17.1775 41.9162 17.0726 41.6731 17.061H30.7589C30.5071 17.061 30.2657 17.1606 30.0877 17.3379C29.9097 17.5152 29.8097 17.7557 29.8097 18.0064V19.3263H42.5685V18.0064ZM58.5415 56.5343V44.8511C58.5458 44.4551 58.4685 44.0625 58.3145 43.6974C58.1605 43.3323 57.933 43.0025 57.6462 42.7284L51.2265 36.8422C50.6906 36.3553 49.9912 36.0853 49.2657 36.0853C48.5402 36.0853 47.841 36.3553 47.3049 36.8422L40.8853 42.7284C40.5984 43.0025 40.3709 43.3323 40.2169 43.6974C40.0629 44.0625 39.9857 44.4551 39.9899 44.8511V56.5343C39.9917 56.926 40.1438 57.3022 40.4152 57.5858C40.6866 57.8694 41.0566 58.0388 41.4493 58.0593H46.1857C46.5926 58.0569 46.982 57.8943 47.2689 57.6069C47.5558 57.3194 47.7168 56.9306 47.7168 56.5254V50.8442H50.7431V56.5343C50.7455 56.9379 50.9074 57.3245 51.1941 57.61C51.4807 57.8955 51.8688 58.057 52.2741 58.0593H57.0105C57.4159 58.057 57.804 57.8955 58.0905 57.61C58.3771 57.3245 58.5392 56.9379 58.5415 56.5343ZM53.1694 49.997C53.1694 49.796 53.1296 49.597 53.0521 49.4113C52.9746 49.2257 52.861 49.0572 52.7179 48.9155C52.5748 48.7737 52.4049 48.6616 52.2181 48.5854C52.0313 48.5093 51.8313 48.4708 51.6294 48.4719H46.8662C46.6613 48.4707 46.4583 48.5104 46.2691 48.5887C46.08 48.6671 45.9085 48.7824 45.7649 48.928C45.6213 49.0735 45.5085 49.2463 45.4331 49.436C45.3578 49.6258 45.3214 49.8286 45.3262 50.0326V55.7227H42.3089V44.8511C42.3067 44.782 42.32 44.7133 42.3479 44.6501C42.3758 44.5868 42.4175 44.5305 42.47 44.4854L48.8897 38.5902C48.9823 38.505 49.1038 38.4576 49.2299 38.4576C49.356 38.4576 49.4775 38.505 49.5702 38.5902L55.9898 44.4854C56.0434 44.5301 56.0865 44.5861 56.1159 44.6493C56.1453 44.7125 56.1604 44.7814 56.1599 44.8511V55.687H53.1337L53.1694 49.997ZM41.7895 55.6513H27.4102V54.9021H25.0197V56.2756C25.0197 56.7487 25.2083 57.2023 25.5441 57.5368C25.88 57.8714 26.3354 58.0593 26.8104 58.0593H41.7895V55.6513Z" fill="#F35597"/>
</g>
</g>
<defs>
<filter id="filter0_d_204_3680" x="-12.4531" y="-4.93555" width="101" height="101" filterUnits="userSpaceOnUse" color-interpolation-filters="sRGB">
<feFlood flood-opacity="0" result="BackgroundImageFix"/>
<feColorMatrix in="SourceAlpha" type="matrix" values="0 0 0 0 0 0 0 0 0 0 0 0 0 0 0 0 0 0 127 0" result="hardAlpha"/>
<feMorphology radius="7" operator="erode" in="SourceAlpha" result="effect1_dropShadow_204_3680"/>
<feOffset dy="8"/>
<feGaussianBlur stdDeviation="10"/>
<feColorMatrix type="matrix" values="0 0 0 0 0 0 0 0 0 0 0 0 0 0 0 0 0 0 0.14 0"/>
<feBlend mode="normal" in2="BackgroundImageFix" result="effect1_dropShadow_204_3680"/>
<feBlend mode="normal" in="SourceGraphic" in2="effect1_dropShadow_204_3680" result="shape"/>
</filter>
<clipPath id="clip0_204_3680">
<rect width="40.9983" height="40.9983" fill="white" transform="translate(17.5435 17.061)"/>
</clipPath>
</defs>
</svg>
