<svg width="76" height="82" viewBox="0 0 76 82" fill="none" xmlns="http://www.w3.org/2000/svg">
<g filter="url(#filter0_d_204_3671)">
<g clip-path="url(#clip0_204_3671)">
<path d="M56.9695 34.5949H57.0434L56.4154 33.0897L56.3417 32.9144C55.9261 33.8377 55.4828 34.761 55.0212 35.6845C55.3846 36.9052 55.6107 38.1625 55.6953 39.4334H53.0543C52.648 40.1813 52.251 40.9107 51.8632 41.6033H55.6953C55.5965 43.2672 55.251 44.9072 54.6703 46.4696H49.6931C49.8039 45.9801 49.8686 45.4722 49.9425 44.9736C48.8621 46.8204 48.0957 48.0393 48.0957 48.0393C48.0957 48.0393 47.7356 47.4576 47.1723 46.4696H39.545V41.631H44.3744C43.9866 40.9385 43.5895 40.2091 43.1832 39.4611H39.545V34.5949H40.69C40.3392 33.8562 40.0068 33.1359 39.6835 32.4157H39.545V32.0925C38.1877 29.0269 37.2181 26.2014 37.2181 24.41C37.2203 23.2746 37.401 22.1466 37.7537 21.0674C34.2809 21.1813 30.9016 22.2208 27.9654 24.0786C25.0291 25.9364 22.6425 28.5449 21.0525 31.6343C19.4624 34.7237 18.7266 38.1817 18.9212 41.6508C19.1158 45.12 20.2337 48.4741 22.1593 51.3663C24.0849 54.2585 26.7482 56.5837 29.8739 58.1015C32.9994 59.6192 36.4738 60.2744 39.9375 59.9992C43.4012 59.7239 46.7285 58.5284 49.5752 56.5361C52.4219 54.5438 54.6846 51.8272 56.1292 48.6672L56.4154 48.0024L57.0341 46.5065H56.9602C57.4763 44.9309 57.7866 43.2953 57.8837 41.6402V39.4703C57.7904 37.8126 57.4832 36.1738 56.9695 34.5949ZM32.6196 24.1884C30.2233 26.4126 28.4963 29.2622 27.6332 32.4157H23.0624C25.1106 28.5773 28.5193 25.643 32.6196 24.1884ZM22.0929 34.5949H27.07C26.7293 36.1872 26.5284 37.8061 26.4697 39.4334H21.0679C21.177 37.7799 21.5221 36.1506 22.0929 34.5949ZM21.0679 41.631H26.4697C26.5274 43.2675 26.7282 44.8958 27.07 46.4973H22.0929C21.5195 44.9327 21.1743 43.2938 21.0679 41.631ZM23.0624 48.6672H27.6332C28.4947 51.824 30.2218 54.6769 32.6196 56.9037C28.5182 55.4461 25.1095 52.5084 23.0624 48.6672ZM37.2181 56.9776C34.1801 56.3127 31.4469 53.2287 29.9141 48.6672H37.2181V56.9776ZM37.2181 46.5249H29.2954C28.9248 44.927 28.7053 43.2977 28.6397 41.6587H37.2181V46.5249ZM37.2181 39.4888H28.6397C28.7053 37.8498 28.9248 36.2205 29.2954 34.6226H37.2181V39.4888ZM37.2181 32.4435H29.9141C31.4469 27.9189 34.1801 24.8348 37.2181 24.133V32.4435ZM39.545 56.9776V48.6672H46.849C45.3162 53.201 42.583 56.285 39.545 56.9776ZM44.162 56.9776C46.5647 54.7283 48.2862 51.8484 49.1298 48.6672H53.7468C51.7042 52.5352 48.2682 55.4827 44.1343 56.9129L44.162 56.9776Z" fill="#F35597"/>
<path d="M48.3808 45.063L47.3615 43.4079C46.4594 42.0136 38.8915 29.6 38.8915 24.8324C38.8523 23.5645 39.0688 22.3017 39.5284 21.1189C39.9878 19.9361 40.6809 18.8573 41.5663 17.9467C42.4517 17.036 43.5116 16.312 44.6829 15.8176C45.8543 15.3231 47.1133 15.0684 48.3853 15.0684C49.6573 15.0684 50.9162 15.3231 52.0876 15.8176C53.259 16.312 54.3188 17.036 55.2043 17.9467C56.0897 18.8573 56.7828 19.9361 57.2422 21.1189C57.7017 22.3017 57.9183 23.5645 57.8791 24.8324C57.8791 29.6 50.275 42.0136 49.4091 43.4079L48.3808 45.063ZM48.3808 17.762C46.5011 17.7644 44.6991 18.5101 43.3701 19.8355C42.041 21.1609 41.2932 22.9579 41.2908 24.8324C41.2908 27.8548 45.7469 36.0046 48.3808 40.4573C51.0237 35.9596 55.4797 27.8638 55.4797 24.8324C55.4749 22.9571 54.7252 21.1601 53.3947 19.8349C52.0641 18.5098 50.2613 17.7644 48.3808 17.762ZM48.3808 29.9058C47.4428 29.904 46.5263 29.625 45.7473 29.104C44.9682 28.583 44.3615 27.8434 44.0038 26.9786C43.646 26.1139 43.5533 25.1629 43.7374 24.2456C43.9215 23.3284 44.3741 22.4861 45.038 21.8253C45.702 21.1645 46.5473 20.7147 47.4674 20.5329C48.3876 20.351 49.3411 20.4453 50.2076 20.8037C51.074 21.162 51.8145 21.7685 52.3355 22.5464C52.8564 23.3243 53.1344 24.2388 53.1344 25.1742C53.132 26.4299 52.6301 27.6334 51.739 28.5205C50.8477 29.4076 49.64 29.9058 48.3808 29.9058ZM48.3808 22.8354C47.917 22.8354 47.4634 22.9726 47.0778 23.2296C46.6922 23.4866 46.3915 23.8518 46.2141 24.2792C46.0365 24.7065 45.9901 25.1768 46.0806 25.6305C46.1711 26.0842 46.3944 26.5009 46.7224 26.828C47.0504 27.1551 47.4683 27.3779 47.9233 27.4681C48.3782 27.5583 48.8497 27.5119 49.2782 27.335C49.7068 27.1579 50.0731 26.8582 50.3307 26.4735C50.5885 26.089 50.7261 25.6368 50.7261 25.1742C50.7189 24.5586 50.4687 23.9706 50.0296 23.5378C49.5906 23.105 48.9981 22.8623 48.3808 22.8624V22.8354Z" fill="#F35597"/>
</g>
</g>
<defs>
<filter id="filter0_d_204_3671" x="-12.1128" y="-4.93555" width="101" height="101" filterUnits="userSpaceOnUse" color-interpolation-filters="sRGB">
<feFlood flood-opacity="0" result="BackgroundImageFix"/>
<feColorMatrix in="SourceAlpha" type="matrix" values="0 0 0 0 0 0 0 0 0 0 0 0 0 0 0 0 0 0 127 0" result="hardAlpha"/>
<feMorphology radius="7" operator="erode" in="SourceAlpha" result="effect1_dropShadow_204_3671"/>
<feOffset dy="8"/>
<feGaussianBlur stdDeviation="10"/>
<feColorMatrix type="matrix" values="0 0 0 0 0 0 0 0 0 0 0 0 0 0 0 0 0 0 0.14 0"/>
<feBlend mode="normal" in2="BackgroundImageFix" result="effect1_dropShadow_204_3671"/>
<feBlend mode="normal" in="SourceGraphic" in2="effect1_dropShadow_204_3671" result="shape"/>
</filter>
<clipPath id="clip0_204_3671">
<rect width="38.9931" height="44.992" fill="white" transform="translate(18.8906 15.0684)"/>
</clipPath>
</defs>
</svg>
