<svg width="17" height="17" viewBox="0 0 17 17" fill="none" xmlns="http://www.w3.org/2000/svg">
<g clip-path="url(#clip0_204_3794)">
<path fill-rule="evenodd" clip-rule="evenodd" d="M2.16169 4.38752C2.18284 4.21737 2.1033 4.04913 1.94747 3.93464L0.360456 2.37549V2.14258H5.28802L9.09681 8.95495L12.4454 2.14258L17.1428 2.14261V2.37549L15.7859 3.43646C15.6689 3.50915 15.6109 3.62874 15.6352 3.74705V11.5427C15.6109 11.661 15.6689 11.7806 15.7859 11.8533L17.111 12.9143V13.1472H10.4458V12.9143L11.8184 11.8274C11.9534 11.7174 11.9534 11.6851 11.9534 11.5169V5.21561L8.1367 13.1213H7.62097L3.17733 5.21561V10.5141C3.14035 10.7368 3.23105 10.9611 3.42332 11.1222L5.20875 12.8883V13.1213H0.14624V12.8883L1.93167 11.1222C2.12251 10.9609 2.2079 10.735 2.16169 10.5141V4.38752Z" fill="#ACABB4"/>
</g>
<defs>
<clipPath id="clip0_204_3794">
<rect width="16.9965" height="15.9342" fill="white" transform="translate(-0.00512695 0.524414)"/>
</clipPath>
</defs>
</svg>
