<svg width="21" height="21" viewBox="0 0 21 21" fill="none" xmlns="http://www.w3.org/2000/svg">
<g clip-path="url(#clip0_204_3796)">
<path d="M20.1322 17.7135C20.1322 19.2478 18.8889 20.491 17.3546 20.491H2.91134C1.37758 20.491 0.133789 19.2478 0.133789 17.7135V3.27023C0.133789 1.7359 1.37758 0.492676 2.91134 0.492676H17.3546C18.8889 0.492676 20.1322 1.7359 20.1322 3.27023V17.7135Z" fill="#ACABB4"/>
<path d="M3.61206 7.77474H6.32924V17.0131H3.61206V7.77474ZM4.9625 6.68787H4.94728C4.13648 6.68787 3.61206 6.08357 3.61206 5.32874C3.61206 4.55761 4.15278 3.9707 4.97826 3.9707C5.80482 3.9707 6.31402 4.55761 6.32924 5.32874C6.32924 6.08303 5.80482 6.68787 4.9625 6.68787ZM16.6545 17.0131H13.9373V12.0684C13.9373 10.874 13.2716 10.0588 12.2027 10.0588C11.3869 10.0588 10.9457 10.6088 10.7316 11.1402C10.6533 11.3304 10.6767 11.8565 10.6767 12.1222V17.0131H7.95953V7.77474H10.6767V9.19636C11.0686 8.58989 11.682 7.77474 13.2515 7.77474C15.1959 7.77474 16.6539 8.99747 16.6539 11.7277L16.6545 17.0131Z" fill="white"/>
</g>
<defs>
<clipPath id="clip0_204_3796">
<rect width="20.9983" height="19.9983" fill="white" transform="translate(-0.00878906 0.492676)"/>
</clipPath>
</defs>
</svg>
