<svg width="25" height="21" viewBox="0 0 25 21" fill="none" xmlns="http://www.w3.org/2000/svg">
<g clip-path="url(#clip0_204_3780)">
<path fill-rule="evenodd" clip-rule="evenodd" d="M7.92926 20.4133C17.2246 20.4133 22.3108 12.7466 22.3108 6.10935C22.3108 5.89366 22.3108 5.67797 22.301 5.46229C23.2867 4.75641 24.1443 3.86425 24.8244 2.85445C23.9175 3.25641 22.9417 3.52111 21.9165 3.64856C22.9614 3.03092 23.7598 2.04072 24.1443 0.864248C23.1684 1.44268 22.0841 1.85445 20.9308 2.07994C20.0043 1.09954 18.6933 0.491699 17.2443 0.491699C14.4547 0.491699 12.1875 2.7466 12.1875 5.52111C12.1875 5.91327 12.2368 6.29562 12.3157 6.66817C8.11655 6.46229 4.39055 4.45248 1.89669 1.41327C1.46298 2.15837 1.21655 3.02111 1.21655 3.94268C1.21655 5.68778 2.11355 7.22699 3.46398 8.12895C2.63598 8.09954 1.85726 7.87405 1.17712 7.5015C1.17712 7.52111 1.17712 7.54072 1.17712 7.57013C1.17712 10.0015 2.92183 12.0407 5.22841 12.5015C4.80455 12.6192 4.36098 12.678 3.89769 12.678C3.57241 12.678 3.25698 12.6486 2.95141 12.5897C3.59212 14.5897 5.46498 16.0407 7.67298 16.0799C5.93812 17.4329 3.75969 18.2368 1.39398 18.2368C0.989835 18.2368 0.585692 18.2172 0.191406 18.1682C2.41912 19.5799 5.08055 20.4133 7.92926 20.4133Z" fill="#ACABB4"/>
</g>
<defs>
<clipPath id="clip0_204_3780">
<rect width="25" height="20" fill="white" transform="translate(0 0.491699)"/>
</clipPath>
</defs>
</svg>
