<svg width="20" height="21" viewBox="0 0 20 21" fill="none" xmlns="http://www.w3.org/2000/svg">
<g clip-path="url(#clip0_204_3792)">
<path fill-rule="evenodd" clip-rule="evenodd" d="M9.99487 0.491699C4.47237 0.491699 -0.00512695 4.96837 -0.00512695 10.4917C-0.00512695 14.7284 2.63071 18.3467 6.35071 19.8034C6.26321 19.0125 6.18404 17.7992 6.38571 16.9359C6.56737 16.155 7.55821 11.965 7.55821 11.965C7.55821 11.965 7.25904 11.3659 7.25904 10.48C7.25904 9.09003 8.06487 8.0517 9.06821 8.0517C9.92071 8.0517 10.3332 8.69253 10.3332 9.46003C10.3332 10.3175 9.78737 11.6 9.50487 12.7892C9.26904 13.7842 10.004 14.5967 10.9857 14.5967C12.7632 14.5967 14.129 12.7225 14.129 10.0175C14.129 7.62337 12.409 5.9492 9.95237 5.9492C7.10737 5.9492 5.43737 8.08337 5.43737 10.2884C5.43737 11.1475 5.76821 12.07 6.18154 12.57C6.26321 12.6692 6.27487 12.7567 6.25071 12.8575L5.97321 13.9909C5.92904 14.1742 5.82821 14.2134 5.63821 14.125C4.38904 13.5434 3.60821 11.7175 3.60821 10.2509C3.60821 7.0967 5.89987 4.1992 10.2157 4.1992C13.6849 4.1992 16.3807 6.6717 16.3807 9.97503C16.3807 13.4217 14.2082 16.195 11.1915 16.195C10.1782 16.195 9.22571 15.6692 8.89987 15.0467L8.27654 17.4242C8.05071 18.2934 7.44154 19.3825 7.03321 20.0459C7.96987 20.335 8.96404 20.4917 9.99487 20.4917C15.5174 20.4917 19.9949 16.0142 19.9949 10.4917C19.9949 4.96837 15.5174 0.491699 9.99487 0.491699Z" fill="#ACABB4"/>
</g>
<defs>
<clipPath id="clip0_204_3792">
<rect width="20" height="20" fill="white" transform="translate(-0.00512695 0.491699)"/>
</clipPath>
</defs>
</svg>
