<svg width="25" height="18" viewBox="0 0 25 18" fill="none" xmlns="http://www.w3.org/2000/svg">
<g clip-path="url(#clip0_204_3778)">
<path fill-rule="evenodd" clip-rule="evenodd" d="M9.62255 12.1934V5.0195L15.9443 8.6066L9.62255 12.1934ZM23.6843 2.7605C23.4062 1.71577 22.5865 0.893083 21.5459 0.613874C19.6597 0.106445 12.0962 0.106445 12.0962 0.106445C12.0962 0.106445 4.53249 0.106445 2.64628 0.613874C1.60568 0.893083 0.786057 1.71577 0.507902 2.7605C0.00244141 4.65398 0.00244141 8.60471 0.00244141 8.60471C0.00244141 8.60471 0.00244141 12.5553 0.507902 14.4489C0.786057 15.4936 1.60568 16.3163 2.64628 16.5957C4.53249 17.103 12.0962 17.103 12.0962 17.103C12.0962 17.103 19.6597 17.103 21.5459 16.5957C22.5865 16.3163 23.4062 15.4936 23.6843 14.4489C24.1898 12.5553 24.1898 8.60471 24.1898 8.60471C24.1898 8.60471 24.1898 4.65398 23.6843 2.7605Z" fill="#ACABB4"/>
</g>
<defs>
<clipPath id="clip0_204_3778">
<rect width="24.9949" height="16.9965" fill="white" transform="translate(0.00244141 0.106445)"/>
</clipPath>
</defs>
</svg>
